<svg width="209" height="58" viewBox="0 0 209 58" fill="none" xmlns="http://www.w3.org/2000/svg">
<rect width="209" height="58" rx="25" fill="#FE886A"/>
<path d="M61.0904 38V21.2H64.2104V35.36H72.9944V38H61.0904ZM83.9849 38.24C82.6728 38.24 81.4648 38.024 80.3609 37.592C79.2569 37.16 78.2968 36.56 77.4808 35.792C76.6648 35.008 76.0328 34.096 75.5848 33.056C75.1368 32 74.9128 30.848 74.9128 29.6C74.9128 28.352 75.1368 27.208 75.5848 26.168C76.0328 25.112 76.6648 24.2 77.4808 23.432C78.2968 22.648 79.2569 22.04 80.3609 21.608C81.4648 21.176 82.6648 20.96 83.9609 20.96C85.2729 20.96 86.4729 21.176 87.5609 21.608C88.6649 22.04 89.6249 22.648 90.4409 23.432C91.2569 24.2 91.8889 25.112 92.3369 26.168C92.7849 27.208 93.0089 28.352 93.0089 29.6C93.0089 30.848 92.7849 32 92.3369 33.056C91.8889 34.112 91.2569 35.024 90.4409 35.792C89.6249 36.56 88.6649 37.16 87.5609 37.592C86.4729 38.024 85.2809 38.24 83.9849 38.24ZM83.9609 35.504C84.8089 35.504 85.5929 35.36 86.3129 35.072C87.0329 34.784 87.6568 34.376 88.1848 33.848C88.7129 33.304 89.1209 32.68 89.4088 31.976C89.7129 31.256 89.8649 30.464 89.8649 29.6C89.8649 28.736 89.7129 27.952 89.4088 27.248C89.1209 26.528 88.7129 25.904 88.1848 25.376C87.6568 24.832 87.0329 24.416 86.3129 24.128C85.5929 23.84 84.8089 23.696 83.9609 23.696C83.1129 23.696 82.3289 23.84 81.6089 24.128C80.9049 24.416 80.2808 24.832 79.7368 25.376C79.2088 25.904 78.7928 26.528 78.4888 27.248C78.2008 27.952 78.0568 28.736 78.0568 29.6C78.0568 30.448 78.2008 31.232 78.4888 31.952C78.7928 32.672 79.2088 33.304 79.7368 33.848C80.2649 34.376 80.8889 34.784 81.6089 35.072C82.3289 35.36 83.1129 35.504 83.9609 35.504ZM105.124 38.24C103.812 38.24 102.604 38.032 101.5 37.616C100.412 37.184 99.46 36.584 98.644 35.816C97.828 35.032 97.196 34.112 96.748 33.056C96.3 32 96.076 30.848 96.076 29.6C96.076 28.352 96.3 27.2 96.748 26.144C97.196 25.088 97.828 24.176 98.644 23.408C99.476 22.624 100.444 22.024 101.548 21.608C102.652 21.176 103.86 20.96 105.172 20.96C106.596 20.96 107.876 21.192 109.012 21.656C110.164 22.12 111.132 22.8 111.916 23.696L109.948 25.616C109.292 24.96 108.58 24.48 107.812 24.176C107.06 23.856 106.228 23.696 105.316 23.696C104.436 23.696 103.62 23.84 102.868 24.128C102.116 24.416 101.468 24.824 100.924 25.352C100.38 25.88 99.956 26.504 99.652 27.224C99.364 27.944 99.22 28.736 99.22 29.6C99.22 30.448 99.364 31.232 99.652 31.952C99.956 32.672 100.38 33.304 100.924 33.848C101.468 34.376 102.108 34.784 102.844 35.072C103.58 35.36 104.396 35.504 105.292 35.504C106.124 35.504 106.924 35.376 107.692 35.12C108.476 34.848 109.22 34.4 109.924 33.776L111.7 36.104C110.82 36.808 109.796 37.344 108.628 37.712C107.476 38.064 106.308 38.24 105.124 38.24ZM108.748 35.696V29.408H111.7V36.104L108.748 35.696ZM124.368 38V21.2H127.488V38H124.368ZM132.992 38V21.2H135.56L146.096 34.136H144.824V21.2H147.92V38H145.352L134.816 25.064H136.088V38H132.992Z" fill="white"/>
</svg>
